<?xml version="1.0" encoding="iso-8859-1"?>
<!-- Generator: Adobe Illustrator 19.0.0, SVG Export Plug-In . SVG Version: 6.00 Build 0)  -->
<svg version="1.1" id="Layer_1" xmlns="http://www.w3.org/2000/svg" xmlns:xlink="http://www.w3.org/1999/xlink" x="0px" y="0px"
	 viewBox="0 0 512 512" style="enable-background:new 0 0 512 512;" xml:space="preserve">
<path style="fill:#F2962E;" d="M375.256,181.08C375.25,62.349,256,8.352,256,8.352S136.75,62.349,136.744,181.08H30.489v25.793
	c0,124.546,100.964,225.51,225.51,225.51s225.51-100.964,225.51-225.51V181.08H375.256z"/>
<g>
	<path style="fill:#FFC88F;" d="M337.215,181.083c-0.002-37.881-15.663-72.239-46.55-102.121
		c-14.316-13.85-28.907-23.698-38.627-29.521l7.82-13.054c10.405,6.234,26.032,16.783,41.388,31.639
		c33.962,32.858,51.184,70.895,51.186,113.056H337.215z"/>
	<path style="fill:#FFC88F;" d="M285.014,407.487l-2.168-15.061c55.639-8.011,104.353-40.365,133.654-88.765l13.017,7.88
		C397.85,363.854,345.181,398.825,285.014,407.487z"/>
	<path style="fill:#FFC88F;" d="M439.483,292.964l-13.766-6.484c11.13-23.631,17.086-48.914,17.7-75.146l15.212,0.357
		C457.964,240.058,451.522,267.402,439.483,292.964z"/>
</g>
<path style="fill:#7A1B2E;" d="M382.702,173.472c-2.043-47.789-23.316-92.178-61.835-128.794
	c-30.396-28.894-60.465-42.684-61.73-43.256L256,0l-3.139,1.421c-1.265,0.572-31.334,14.362-61.73,43.256
	c-38.519,36.616-59.792,81.005-61.835,128.794H22.881v33.401c0,62.268,24.248,120.809,68.279,164.84
	c42.232,42.232,97.816,66.25,157.232,68.143V512h15.216v-72.144c59.416-1.893,115-25.911,157.232-68.143
	c44.03-44.03,68.279-102.571,68.279-164.84v-33.401H382.702z M473.902,206.874c0,58.204-22.666,112.923-63.822,154.08
	c-39.358,39.358-91.122,61.79-146.473,63.677v-49.961l109.991-109.991l-10.76-10.759l-99.229,99.229v-86.251h29.146v-15.216h-29.146
	v-15.216h29.146v-15.216h-29.146v-40.168h-15.216v40.168h-29.249v15.216h29.249v15.216h-29.249v15.216h29.249v86.251l-99.229-99.229
	l-10.76,10.759l109.99,109.991v49.961c-55.35-1.887-107.115-24.319-146.473-63.677c-41.155-41.156-63.822-95.876-63.822-154.08
	v-18.185h106.253v-7.608c0.003-46.92,19.151-88.991,56.915-125.042c23.071-22.025,46.462-34.984,54.739-39.215
	c8.227,4.196,31.347,16.988,54.379,38.882c37.995,36.118,57.262,78.301,57.265,125.374v7.608h106.253v18.185H473.902z"/>
<g>
</g>
<g>
</g>
<g>
</g>
<g>
</g>
<g>
</g>
<g>
</g>
<g>
</g>
<g>
</g>
<g>
</g>
<g>
</g>
<g>
</g>
<g>
</g>
<g>
</g>
<g>
</g>
<g>
</g>
</svg>
